<svg width="197.493637" height="170.404785" viewBox="0 0 197.494 170.405" fill="none" xmlns="http://www.w3.org/2000/svg" xmlns:xlink="http://www.w3.org/1999/xlink">
	<desc>
			Created with Pixso.
	</desc>
	<defs/>
	<path id="星形 1" d="M95.3674 136.223L88.8809 2.05647L71.5478 2.39627L3.08591 161.48L72.0318 27.1256L95.3674 136.223L117.412 26.2375L197.049 157.684L116.928 1.50818L99.5947 1.84682L95.3674 136.223Z" fill-rule="evenodd" fill="#000000"/>
	<path id="星形 1" d="M95.3674 136.223L88.8809 2.05647L71.5478 2.39627L3.08591 161.48L72.0318 27.1256L95.3674 136.223L117.412 26.2375L197.049 157.684L116.928 1.50818L99.5947 1.84682L95.3674 136.223Z" stroke="#CFC8C8"/>
	<path id="Diamond" d="M58.5336 147.264Q57.6635 150.929 55.2728 152.749Q52.8822 154.568 50.0873 155.06Q47.3011 155.543 43.7328 155.543Q42.2914 155.543 40.639 155.473Q40.059 155.429 39.2328 155.429Q39.1976 155.324 39.3822 151.254Q39.8832 140.927 39.8832 135.557Q39.8832 133.404 39.7777 132.393Q41.8959 131.497 43.8822 131.022L43.8822 132.358Q43.8822 133.114 43.9174 133.29Q44.4535 132.718 45.7982 132.34Q47.1517 131.962 48.7426 131.962Q49.8588 131.962 50.931 132.173Q54.8597 133.008 56.9955 135.689Q59.14 138.37 59.14 142.544Q59.14 144.636 58.5336 147.264ZM51.7308 134.01Q51.7308 134.125 51.6869 134.16Q51.6517 134.195 51.7308 134.335Q52.0912 135.021 52.5922 135.126L52.6976 134.696L52.0912 134.01L51.7308 134.01ZM53.7787 145.243Q53.9984 144.162 53.9984 143.16Q53.9984 140.892 53.0052 139.073Q52.0121 137.253 50.3773 136.225Q48.7426 135.197 46.8705 135.197Q45.4994 135.197 44.1635 135.812Q44.1635 136.963 43.9525 143.16Q43.9174 144.522 43.8031 147.677Q43.6976 150.824 43.6976 152.195Q44.7787 152.406 45.8246 152.406Q48.848 152.406 50.9486 150.613Q53.058 148.811 53.7787 145.243ZM53.9633 150.358Q54.0336 150.208 54.2445 149.831Q54.4642 149.453 54.5697 149.101Q54.6752 148.741 54.6752 148.336Q54.6752 147.985 54.64 147.8Q54.3588 148.336 53.8666 149.277Q53.3832 150.208 53.4183 150.288Q53.4535 150.428 53.559 150.446Q53.6732 150.463 53.7787 150.534Q53.8138 150.463 53.8314 150.428Q53.849 150.393 53.9633 150.358ZM55.2904 138.334L55.3607 138.334L55.1849 138.044L55.2904 138.334ZM64.3291 137.939Q64.1797 137.904 63.5293 136.823Q62.8877 135.742 62.3076 134.485Q61.7363 133.219 61.666 132.534Q63.1777 132.569 64.5752 133.272Q65.9814 133.975 66.7021 134.951Q65.0498 137.579 64.3291 137.939ZM62.9228 139.987Q63.2832 139.987 64.7246 139.626Q66.5263 139.125 66.7021 139.301L66.5263 143.335Q66.4472 144.777 66.2451 149.62Q66.0517 154.462 66.1308 155.289Q66.0517 155.579 64.6982 155.992Q63.3535 156.405 62.5625 156.37L62.6328 154.067Q62.9931 145.243 62.9931 141.252Q62.9931 139.987 62.9228 139.987ZM64.3642 150.323Q64.3291 150.718 64.3291 151.254Q64.3291 151.975 64.4697 152.836L64.5752 152.836L64.5752 150.929L64.3642 150.323ZM73.9018 140.207Q75.6332 139.521 77.1801 139.521Q78.8324 139.521 80.5639 140.417L81.7504 139.917Q82.726 139.556 83.6225 139.125Q83.1918 144.311 83.1918 149.497Q83.1918 151.685 83.2445 153.258Q83.2973 154.823 83.3676 155.359Q82.9018 155.825 82.0756 156.132Q81.2494 156.44 80.4936 156.598Q79.7377 156.765 79.6674 156.73L79.6674 154.313Q78.727 155.183 78.0238 155.614Q77.3207 156.044 76.3891 156.115L75.7387 156.15Q73.5766 156.15 72.0121 155.051Q70.4477 153.953 69.6567 152.16Q68.8656 150.358 68.8656 148.301Q68.8656 145.638 70.1752 143.388Q71.4936 141.138 73.9018 140.207ZM78.0766 142.219Q75.3432 142.509 73.9369 144.109Q72.5395 145.708 72.5395 147.765Q72.5395 149.136 73.1635 150.358Q73.7963 151.58 74.9652 152.335Q76.1342 153.091 77.6811 153.091Q78.5512 153.091 79.6235 152.801Q79.808 148.987 79.808 146.429L79.808 143.88L79.808 142.615Q79.7377 142.58 79.1752 142.351Q78.6215 142.114 78.0766 142.219ZM71.2738 145.638Q71.599 145.638 71.9242 145.533Q71.5287 145.533 71.2738 145.638ZM75.7035 154.313Q76.3539 154.498 76.9955 154.498Q77.7162 154.498 78.3666 154.278Q78.0063 154.208 77.8305 154.208Q77.5053 154.208 77.1801 154.243Q76.8549 154.278 76.5297 154.278Q76.0287 154.278 75.7738 154.172L75.5981 154.278L75.7035 154.313ZM105.404 153.742Q105.474 153.882 105.632 154.911Q105.799 155.939 105.834 156.405Q105.834 156.37 105.509 156.37L103.997 156.37Q102.951 156.37 102.319 156.299Q101.695 156.229 101.73 155.974Q101.484 156.581 101.484 155.473Q101.484 154.498 101.589 152.88Q101.765 148.917 101.765 147.545Q101.765 142.254 100.578 141.789Q100.183 141.648 99.717 141.648Q98.8908 141.648 98.2404 142.193Q97.59 142.729 97.4846 143.625L97.4846 146.183L97.4846 153.021Q97.4846 154.568 97.7746 156.405Q97.4143 156.44 96.3156 156.475Q95.217 156.51 94.7863 156.475Q94.2414 156.44 94.0568 156.194Q93.8811 155.939 93.8811 155.394Q93.8811 155.148 93.8986 154.533Q93.9162 153.917 93.8811 153.276Q93.9162 151.65 93.9162 149.136Q93.9162 145.533 93.6789 144.109Q93.4504 142.685 93.0022 142.457Q92.5539 142.219 91.2883 142.219Q90.6115 142.219 90.1721 142.457Q89.7414 142.685 89.469 143.502Q89.2053 144.311 89.2053 145.999Q89.2053 146.473 89.2756 148.266Q89.3811 151.834 89.3811 152.16Q89.3811 155.069 88.9856 156.405Q85.8918 156.405 85.3908 156.044Q85.2766 155.904 85.3293 155.693Q85.3908 155.473 85.4963 155.148Q85.5315 154.963 85.6721 154.48Q85.8215 153.997 85.9621 153.417Q85.9973 153.487 85.9973 152.265Q85.9973 149.998 85.9621 148.521L85.927 142.94Q85.927 139.336 86.0676 139.301Q86.3576 139.231 86.507 139.231Q86.8674 139.231 87.3684 139.503Q87.8693 139.776 88.9152 140.497Q89.6359 139.741 90.4973 139.345Q91.3674 138.941 92.2287 138.941Q93.4152 138.941 94.3469 139.679Q95.2873 140.417 95.6828 141.789Q96.7639 140.171 98.091 139.38Q99.427 138.581 100.798 138.581Q102.521 138.581 103.83 139.758Q105.149 140.927 105.509 142.94Q105.579 143.52 105.579 144.917Q105.579 146.649 105.544 148.161Q105.509 149.672 105.474 150.718Q105.404 153.021 105.404 153.742ZM91.2883 141.358Q91.3234 141.173 91.4289 140.91Q91.5432 140.637 91.5783 140.453Q91.508 140.312 91.4729 140.277L91.007 140.277Q91.0774 140.453 91.1301 140.857Q91.1828 141.252 91.2883 141.358ZM96.3684 145.427Q96.1486 144.557 95.9377 144.311Q95.9377 146.289 96.1838 147.044L96.3684 147.044L96.3684 145.427ZM86.4631 152.335Q86.3928 152.335 86.3576 152.555L86.4631 152.555L86.4631 152.335ZM104.068 154.243Q104.112 154.067 104.147 153.891Q104.182 153.707 104.182 153.522Q104.182 153.417 104.147 153.381L103.962 153.381Q103.997 153.522 104.015 153.847Q104.032 154.172 104.068 154.243ZM114.619 156.405Q112.132 156.405 110.33 155.095Q108.537 153.777 107.614 151.659Q106.7 149.532 106.7 147.15Q106.7 144.847 107.579 142.852Q108.467 140.857 110.26 139.635Q112.061 138.405 114.619 138.405Q117.388 138.405 119.312 139.635Q121.246 140.857 122.195 142.834Q123.153 144.812 123.153 147.115Q123.153 149.497 122.16 151.641Q121.167 153.777 119.225 155.095Q117.282 156.405 114.619 156.405ZM119.154 144.636Q118.829 142.975 117.678 142.043Q116.526 141.103 115.085 141.103Q113.898 141.103 112.87 141.789Q111.85 142.474 111.341 143.766Q111.016 144.522 110.813 145.533Q110.62 146.543 110.62 147.625Q110.62 149.892 111.648 151.421Q112.677 152.951 114.944 152.951Q116.922 152.951 118.143 151.202Q119.374 149.453 119.374 146.754Q119.374 145.708 119.154 144.636ZM121.457 146.649Q121.606 146.614 121.729 146.271Q121.852 145.928 121.932 145.858L121.782 145.603Q121.527 145.893 121.439 146.218Q121.351 146.543 121.316 146.649L121.457 146.649ZM109.504 150.138Q109.724 150.138 109.829 150.103Q109.653 149.962 109.24 149.637Q108.827 149.312 108.247 149.101L108.247 149.453Q108.502 149.602 108.862 149.875Q109.223 150.138 109.504 150.138ZM135.644 147.299Q135.749 144.487 134.791 143.089Q133.842 141.683 132.365 141.683Q131.214 141.683 130.168 142.527Q129.131 143.371 128.735 144.742Q128.516 145.963 128.445 151.219Q128.445 155.289 128.261 156.405Q127.936 156.334 126.907 156.106Q125.888 155.869 125.026 155.473Q124.991 155.429 124.991 155.034Q124.991 154.673 125.132 152.01Q125.167 151.369 125.29 148.925Q125.422 146.473 125.422 144.487Q125.422 140.927 124.947 139.881Q125.202 139.451 126.547 140.514Q127.9 141.569 128.015 141.648Q128.41 140.417 129.86 139.679Q131.319 138.941 133.086 138.941Q135.389 138.941 137.023 140.189Q138.667 141.428 138.667 143.836Q138.667 143.661 138.632 148.591Q138.597 153.522 138.447 155.289Q138.087 155.359 137.085 155.79Q136.865 155.869 136.232 156.106Q135.608 156.334 135.213 156.405Q135.213 155.869 135.301 153.944Q135.389 152.01 135.538 149.778L135.644 147.299ZM136.689 141.973Q136.575 141.463 136.364 141.208Q136.364 141.648 136.435 142.149Q136.54 142.043 136.575 141.973L136.689 141.973ZM127.109 148.38Q126.934 148.02 126.969 147.642Q127.004 147.264 127.004 147.115Q127.004 146.79 126.934 146.79Q126.898 146.869 126.802 147.159Q126.714 147.44 126.714 147.695Q126.714 148.161 127.109 148.38ZM137.445 154.313Q137.296 153.487 137.296 152.52L137.331 150.973Q137.331 150.103 137.296 150.068Q137.05 151.439 137.05 152.555Q137.05 153.882 137.445 154.313ZM151.589 129.229Q152.019 128.939 153.259 128.508Q154.507 128.069 155.087 128.069Q155.333 128.069 155.403 128.148Q155.052 134.731 154.797 143.678Q154.542 152.625 154.577 154.533Q154.287 154.893 152.81 155.359Q151.343 155.825 151.053 155.649Q150.982 155.614 150.982 155.289Q150.982 155.034 151.017 154.638Q151.053 154.243 151.017 154.137Q149.787 155.579 147.449 155.579Q145.972 155.579 144.461 154.972Q142.949 154.357 141.833 153.293Q140.717 152.23 140.391 151.008Q139.996 149.347 139.996 147.906Q139.996 145.603 140.857 143.608Q141.727 141.613 143.362 140.426Q145.006 139.231 147.308 139.231Q149.18 139.231 151.263 140.057L151.553 130.345L151.589 129.229ZM152.854 134.731Q152.819 134.88 152.758 135.003Q152.705 135.126 152.705 135.276L152.925 135.197Q152.96 134.986 153.136 134.766Q152.96 134.731 152.854 134.731ZM151.088 143.081Q150.332 142.079 148.961 142.079Q147.809 142.079 146.623 142.782Q145.436 143.485 144.645 144.724Q143.854 145.963 143.854 147.44Q143.854 148.776 144.461 150.033Q145.146 151.404 146.368 152.072Q147.598 152.731 149.11 152.731Q149.901 152.731 150.982 152.485Q151.158 150.894 151.158 148.055L151.123 144.601Q151.088 143.986 151.088 143.081ZM152.889 147.941Q152.635 147.08 152.635 146.183Q152.635 145.823 152.67 145.339Q152.705 144.847 152.67 144.557Q152.67 143.661 152.564 143.625Q152.204 144.953 152.204 146.034Q152.204 147.44 152.889 147.941ZM145.181 153.091Q145.252 153.056 145.524 152.968Q145.797 152.88 145.867 152.836Q145.542 152.801 145.401 152.731Q145.287 152.836 144.97 152.836L144.97 153.091L145.181 153.091Z" fill-rule="evenodd" fill="#000000"/>
</svg>
